<svg width="310" height="314" xmlns="http://www.w3.org/2000/svg" xmlns:xlink="http://www.w3.org/1999/xlink" viewBox="0 0 310.22 314.87"><defs><style>.cls-1{fill:#fff9f0;}.cls-2{fill:url(#radial-gradient);}.cls-3{fill:url(#radial-gradient-2);}.cls-4{fill:url(#radial-gradient-3);}.cls-5{fill:url(#radial-gradient-4);}.cls-6{fill:url(#radial-gradient-5);}.cls-7,.cls-8{fill:#ffaa45;}.cls-12,.cls-7{opacity:0.8;}.cls-23,.cls-9{fill:#ffdbb0;}.cls-9{opacity:0.95;}.cls-10{fill:#fff;}.cls-11,.cls-29{fill:#ff931d;}.cls-11{opacity:0.9;}.cls-12,.cls-28{fill:#ffc06d;}.cls-13{fill:#fff5f0;opacity:0.7;}.cls-14{fill:#e0330a;}.cls-15{fill:url(#linear-gradient);}.cls-16{isolation:isolate;}.cls-17{fill:#af2a00;}.cls-18{fill:#7e1d00;}.cls-19{fill:#333f48;}.cls-20{fill:#4a5963;}.cls-21{fill:#192024;}.cls-22{fill:#8596a3;}.cls-24{fill:#181e21;}.cls-25{fill:none;}.cls-26{fill:#647582;}.cls-27{fill:#97e2f7;}.cls-30{fill:url(#linear-gradient-2);}.cls-31{fill:#fff1d9;}</style><radialGradient id="radial-gradient" cx="94.05" cy="28.82" r="23.62" gradientTransform="translate(109.16 47.71) scale(1.44 0.65)" gradientUnits="userSpaceOnUse"><stop offset="0" stop-color="#dcf5fc"/><stop offset="1" stop-color="#dcf5fc" stop-opacity="0"/></radialGradient><radialGradient id="radial-gradient-2" cx="-20.67" cy="70.52" r="20.02" gradientTransform="translate(109.16 15.07) scale(1.44 0.86)" gradientUnits="userSpaceOnUse"><stop offset="0" stop-color="#ffaa45" stop-opacity="0.15"/><stop offset="1" stop-color="#ffaa45" stop-opacity="0"/></radialGradient><radialGradient id="radial-gradient-3" cx="14.19" cy="81.39" r="23.62" gradientTransform="translate(109.16 47.71) scale(1.44 0.65)" xlink:href="#radial-gradient-2"/><radialGradient id="radial-gradient-4" cx="106.75" cy="116.67" r="26.97" gradientTransform="translate(109.16 47.71) scale(1.44 0.65)" xlink:href="#radial-gradient-2"/><radialGradient id="radial-gradient-5" cx="61.32" cy="114.53" r="29.91" gradientTransform="translate(109.16 47.71) scale(1.44 0.65)" xlink:href="#radial-gradient-2"/><linearGradient id="linear-gradient" x1="40.52" y1="254.9" x2="68.19" y2="302.85" gradientTransform="matrix(1, 0, 0, -1, 0, 562)" gradientUnits="userSpaceOnUse"><stop offset="0" stop-color="#f5bd5d" stop-opacity="0"/><stop offset="0.17" stop-color="#f5bd5d" stop-opacity="0.03"/><stop offset="0.4" stop-color="#f5bd5d" stop-opacity="0.1"/><stop offset="0.68" stop-color="#f5bd5d" stop-opacity="0.22"/><stop offset="0.98" stop-color="#f5bd5d" stop-opacity="0.39"/><stop offset="1" stop-color="#f5bd5d" stop-opacity="0.4"/></linearGradient><linearGradient id="linear-gradient-2" x1="72.46" y1="262.84" x2="103.49" y2="209.09" gradientUnits="userSpaceOnUse"><stop offset="0" stop-color="#fff1d9" stop-opacity="0.5"/><stop offset="1" stop-color="#ffc06d"/></linearGradient></defs><g id="Layer_2" data-name="Layer 2"><g id="B"><circle class="cls-1" cx="244.82" cy="41.23" r="41.23"/><ellipse class="cls-2" cx="244.82" cy="66.58" rx="34.08" ry="15.47"/><circle class="cls-1" cx="79.35" cy="58.35" r="34.94"/><ellipse class="cls-3" cx="79.35" cy="75.99" rx="28.88" ry="17.3"/><circle class="cls-1" cx="129.63" cy="75.65" r="41.23"/><ellipse class="cls-4" cx="129.63" cy="101.01" rx="34.08" ry="15.47"/><circle class="cls-1" cx="263.15" cy="95.17" r="47.07"/><ellipse class="cls-5" cx="263.15" cy="124.11" rx="38.91" ry="17.66"/><circle class="cls-1" cx="197.62" cy="90.61" r="52.2" transform="translate(-6.19 166.28) rotate(-45)"/><ellipse class="cls-6" cx="197.62" cy="122.71" rx="43.14" ry="19.59"/><path class="cls-7" d="M213.08,80.1c8.25,12.61,17.6,25.49,30.6,33.58l-18.33,10.65c-13-8.09-22.34-21-30.6-33.58Z"/><path class="cls-8" d="M164.32,88.71l17.93-10.42c0,33.12.48,61,30.44,91.72a37.49,37.49,0,0,0,7,.39c-5,9.41-13.12,12.49-24.94,10.83C164.14,150.34,164.23,119.52,164.32,88.71Z"/><path class="cls-9" d="M182.64,78.12a34.05,34.05,0,0,0,30.44,2L195,90.57a27.77,27.77,0,0,1-3.65,1.32h0a34.57,34.57,0,0,1-27-3.12Z"/><path class="cls-10" d="M194.61,181.17,212.55,170s7.45,1.75,17.77-1.54c0,0-17.83,10.15-22,11.93A24.11,24.11,0,0,1,194.61,181.17Z"/><path class="cls-11" d="M211.5,179c15.49-9.35,13.42-41.25,13.86-54.55l18.33-10.65c0,21.64-.08,47.34-13.7,54.79l-18.38,10.58C211.57,179.06,211.49,179,211.5,179Z"/><path class="cls-12" d="M164.31,88.62a34.62,34.62,0,0,0,30.68,2c8.17,12.67,17.43,25.61,30.38,33.79-.42,22,2,62.56-31.23,56.93C163.73,150.24,164,119.43,164.31,88.62Z"/><path class="cls-13" d="M196.81,82.55l-.41,0L178.07,93.07s2.43.27,2.78.27A34.74,34.74,0,0,0,191.09,92a36.9,36.9,0,0,0,3.67-1.25l18.33-10.65A36.56,36.56,0,0,1,196.81,82.55Z"/><path class="cls-14" d="M184.68,117.27c-2-1.14-3.92-1.4-5.42-.52-1.76,1-2.75,3.21-2.76,6.1a19.2,19.2,0,0,0,2.72,9.25l13.19,23.05,13.27-7.81c1.75-1,2.75-3.19,2.76-6.09a19.15,19.15,0,0,0-2.71-9.25,15,15,0,0,0-5.23-5.59c-2.7-1.56-5.56-1.5-7.85.54l-.16.14-.17-.3C190.42,122.32,187.5,118.9,184.68,117.27Z"/><path class="cls-7" d="M213.14,80.13,194.82,90.78a208.64,208.64,0,0,0,14.05,19.08L226.78,99S217.41,88.12,213.14,80.13Z"/><polygon class="cls-15" points="54.72 251.37 0 283.12 53.99 314.87 108.71 283.13 54.72 251.37"/><g class="cls-16"><path class="cls-17" d="M142.39,245.75l-8.65,5,4.3,2.5,8.65-5a5.62,5.62,0,0,1,.7-.34,2.73,2.73,0,0,1,2.37,0C147.77,247,144.69,244,142.39,245.75Z"/><path class="cls-18" d="M146.69,248.25l-8.65,5-4.3-2.5v5l4.29,2.49,13-7.45C151,248,149.08,246.87,146.69,248.25Z"/></g><path class="cls-19" d="M142.84,252.11l-1.65-35.7a3,3,0,0,0-1.28-2.7l0,0s-3.81-5-12.57-2.5l-3.27,1.94-.35-7.13a2.25,2.25,0,0,0-1-2s0,0,0,0c-.46-.23-1.52-.89-2.68-1.58s-16.79,12.41-25.31,19.82c-3.29,2.86-5.55,4.86-5.55,4.86s.65,10.72,11.28,13.43c7.2,1.83,14.93-3.94,14.93-3.94l14.43-8.57c-.06,6.56,2.15,18.67,5.42,20.5l6,3.49,0,0A1.41,1.41,0,0,0,142.84,252.11Z"/><path class="cls-20" d="M127.37,211.23l-9,5.37h0l-.71.42s-.61,1.47-1.3,3.29a7.42,7.42,0,0,0,2.29,1.56h0l0,0h0a6.62,6.62,0,0,0,5.84-.53l12.29-7.3a3.26,3.26,0,0,1,3.16-.32S136.13,208.68,127.37,211.23Z"/><path class="cls-21" d="M140.8,251.68c-1.84-2-2.55-4.8-3.28-7.36-1.66-5.91-1.58-13.47-1.94-19.59l-5.68,3.37.17,3.37c.32,6.73,2.61,15.59,5.25,17.13l6,3.49A2.93,2.93,0,0,1,140.8,251.68Z"/><path class="cls-22" d="M150.9,169.89l-.4-4.09a.57.57,0,0,0-.61-.53c-.32,0-5.13,8.12-4.47,8.85a6.45,6.45,0,0,1-1,2.09l-1.19,2,4.44,2.44s.83-2.64,1.08-3.61a.25.25,0,0,0,0-.08l1.51-2.23a3.52,3.52,0,0,0,1-2.22A5.89,5.89,0,0,0,150.9,169.89Zm-3.42,7.37h0Z"/><path class="cls-22" d="M143.53,163.52l-4.2,2.29a6,6,0,0,0-2.14,1.49,3.83,3.83,0,0,0-1,2l-2.87,2.25s2.91,4.37,3.58,3.53,1.7-1.6,2.42-2.38a3.92,3.92,0,0,0,1.28,0C141.37,172.52,143.8,163.34,143.53,163.52Z"/><path class="cls-21" d="M151.42,161.18l-3-2.3a5.66,5.66,0,0,0-1.64-.42,1.31,1.31,0,0,0-1.11.75l-6,11.14a1.66,1.66,0,0,0,.29,2l3.05,2.3a1.59,1.59,0,0,0,.38.17,9,9,0,0,0,1.32.25,1.33,1.33,0,0,0,1-.75l6-11.14a2,2,0,0,0,.22-.86A1.46,1.46,0,0,0,151.42,161.18Z"/><path class="cls-19" d="M150.05,161.42,147,159.13a.3.3,0,0,0-.22-.08.73.73,0,0,0-.58.44l-6,11.15a1.05,1.05,0,0,0,.12,1.28l3.05,2.29a.32.32,0,0,0,.22.08.75.75,0,0,0,.59-.44l6-11.15A1.07,1.07,0,0,0,150.05,161.42Z"/><path class="cls-22" d="M148.28,171.13a2.31,2.31,0,0,0-2.45-2l.62,4.56A2.32,2.32,0,0,0,148.28,171.13Z"/><path class="cls-23" d="M68.79,194.75c-.17.08-.34.15-.51.25Z"/><path class="cls-22" d="M123.91,167.09c-1.43,5-6.22,8-10.69,6.75s-6.94-6.37-5.51-11.38,6.21-8,10.69-6.75S125.34,162.08,123.91,167.09Z"/><path class="cls-24" d="M113.22,167.27l-.06.19Z"/><path class="cls-25" d="M113.29,167.14l.06-.08Z"/><path class="cls-24" d="M121.08,156.89a6.57,6.57,0,0,0-11.79.39,18.33,18.33,0,0,0-1.32,2.44l-.42,1.45-.35,1.25-.5,1.74a7.15,7.15,0,0,0,4.89,8.8l1.63-5.69.06-.1v0l.06-.08a1.3,1.3,0,0,1,1.44-.57,1.32,1.32,0,0,1,.92,1.57l1.4,1,1.19-3.32,1.34-.27,5.77-1.12A6.29,6.29,0,0,0,121.08,156.89Z"/><path class="cls-22" d="M113.28,167.17v0Z"/><path class="cls-26" d="M113.66,173.76a23.2,23.2,0,0,1-3.69-1.68l-.75,2.6a27.08,27.08,0,0,0,6.85,3.93l1.34-4.83A7.26,7.26,0,0,1,113.66,173.76Z"/><path class="cls-14" d="M112.68,159.29c1.1-2.4.14-3.4.14-3.4l-.65-.29s.26.91-.66,3a3.31,3.31,0,0,1-2.14,2l1,.5S111.78,161.33,112.68,159.29Z"/><path class="cls-24" d="M103.92,161.48c-3,1.34-.29,12.33-8.46,12.09-7.44-.25-7.66-6.78-7.66-6.78,2.47,4.15,11,5,8.06-4.48-2.15-7.08,2.63-11,5.77-11.81,7-1.64,11.48,3.28,10.48,6.75C110.6,162.56,107.25,160,103.92,161.48Z"/><path class="cls-20" d="M113.68,168.25a1.07,1.07,0,0,0,.73,1.25l.47-2.07A1.07,1.07,0,0,0,113.68,168.25Z"/><path class="cls-10" d="M113.27,167.19a1.38,1.38,0,0,0-.59,1.08c0,1,.4,1.86,4.06,5.88l.22-.2c-3.72-4.08-4-4.87-4-5.68a1,1,0,0,1,0-.29l.16-.57A1.43,1.43,0,0,1,113.27,167.19Z"/><path class="cls-10" d="M115.67,168.21l3,2,.16-.25-3.09-2.09a.64.64,0,0,1,0,.2Z"/><path class="cls-27" d="M124,168.2s.12,6.44-7.4,6.06l2.22-4.81A9.32,9.32,0,0,0,124,168.2Z"/><path class="cls-22" d="M141,169.27a2.3,2.3,0,0,0,2.18-2.27l-4.59.24A2.3,2.3,0,0,0,141,169.27Z"/><path class="cls-8" d="M149.09,183.45c0-1.2-.15-3.33-.63-3.79-.67-.65-4.74-2.24-4.74-2.24l-1.47,2.39h0l-9.57,15.52L128.26,188a48.19,48.19,0,0,0,5.65-5.4,12.22,12.22,0,0,0,2.65-4.62h0s1.23-2.47.56-3.12l-3.58-3.48-.08-.08-2.63,1.84h0l-11.06,7.71c-4.12-2.64-11-6.84-14.36-8-4.28-1.41-9.94,4-11.25,8.15h0l-9.84,34.72-2.73,9.6,18.34,10.66s10.49-1.57,12.57-3c1-.68,4.52-11,4.52-11l5.11-21.5c2.16,2.3,4.26,4.47,5.57,5.62a46.79,46.79,0,0,0,5.53,3.71l0,0a2.1,2.1,0,0,0,2.19-.12,4.61,4.61,0,0,0,.82-.63,5.75,5.75,0,0,0,1.43-1.65c.34-.62,6.21-10.84,9.72-16.71a12.89,12.89,0,0,0,1.76-6.45h0v-.1C149.1,183.94,149.1,183.69,149.09,183.45Z"/><polygon class="cls-28" points="142.32 179.74 132.56 195.52 135.81 201.16 147.06 181.97 142.32 179.74"/><polygon class="cls-29" points="99.93 236.05 81.58 225.39 84.32 215.79 94.16 181.07 112.5 191.73 102.84 225.84 99.93 236.05"/><path class="cls-29" d="M111.55,208.21l-1.9,6.74a4.17,4.17,0,0,0,2.64,5.24,1.88,1.88,0,0,0,1.1,0h0a3.74,3.74,0,0,1-2.29-4.75l1.7-6.07,7.08.4.24-.87-4.58-.27Z"/><path class="cls-29" d="M119.55,183a4.14,4.14,0,0,1,3.59,0s-12.69-8.49-17.73-10.14c-4.28-1.41-9.94,4-11.25,8.15l18.34,10.66C113.6,188.12,116,184.55,119.55,183Z"/><path class="cls-29" d="M133.46,171.32l-2.63,1.84,5.73,4.84s1.23-2.47.56-3.12Z"/><path class="cls-29" d="M143.72,177.42l-1.47,2.39,4.82,2.13,2,2.35s0-4-.64-4.63S143.72,177.42,143.72,177.42Z"/><path class="cls-23" d="M143.07,238.48c0-4-1.43-6.81-3.71-8.12h0l-.24-.12c-5.67-3-10.7-8.45-17.38-4L110,233l.14-11.4c-.54-14.28-10.57-31.38-25.48-34-4.14-.92-11.58,4.81-15.56,7-3.74,1.69-6.1,5.91-6.12,12.11v.94l-8.8,5.08h0l.11,38.78a.19.19,0,0,0,.08.17l53.56,31.61,0,0c0,.07.13.08.23,0l34.79-20.09a.55.55,0,0,0,.26-.46Z"/><g class="cls-16"><path class="cls-30" d="M107.81,283.12l-.11-38.77-8.25-4.79,0-11.76c0-11.59-8.12-25.71-18.21-31.53S63,195.12,63,206.71l-.16,11-8.65-5,.11,38.78a.19.19,0,0,0,.08.17l53.56,31.61S107.81,283.21,107.81,283.12Z"/><path class="cls-31" d="M121.74,226.23l-22.69,13.1,8.65,5,22.68-13.1c.35-.2.68-.37,1-.54,2.44-1.21,5.51-1.77,8-.34C133.6,227.42,128.52,221.72,121.74,226.23Z"/></g></g></g></svg>